<svg width="144" height="20" viewBox="0 0 144 20" fill="none" xmlns="http://www.w3.org/2000/svg">
<g clip-path="url(#clip0)">
<path d="M7.71695 6.88086C6.81663 6.88086 6.04492 7.52395 6.04492 8.48858C6.04492 8.93874 6.04492 9.32459 6.04492 9.77475C6.04492 10.1606 6.04492 10.6108 6.04492 10.9966C6.10923 11.9612 6.81663 12.6043 7.71695 12.6043C8.61727 12.6043 9.32466 11.9612 9.32466 10.9966C9.32466 10.1606 9.32466 9.32459 9.32466 8.48858C9.32466 7.58825 8.61727 6.88086 7.71695 6.88086Z" fill="black"/>
<path d="M1.67203 11.2537C2.59546 11.2537 3.34405 10.5051 3.34405 9.58169C3.34405 8.65826 2.59546 7.90967 1.67203 7.90967C0.748591 7.90967 0 8.65826 0 9.58169C0 10.5051 0.748591 11.2537 1.67203 11.2537Z" fill="black"/>
<path d="M40.0644 0.964575C39.1641 0.450106 38.0708 0.192871 36.8489 0.192871H29.0033C28.939 0.192871 28.8104 0.25718 28.7461 0.321488C28.6817 0.385797 28.6174 0.450106 28.6174 0.578723V4.69448C28.6174 5.14464 28.6174 5.53049 28.6174 5.98065C28.6174 6.49512 28.7461 6.75236 29.1962 7.00959C29.9036 7.33113 29.9679 7.8456 29.3891 8.36007C29.0033 8.68162 28.5531 8.93885 28.1673 9.26039C27.3956 9.83917 27.267 10.6752 27.91 11.3183C28.6174 11.9614 28.6817 12.6688 28.6174 13.5048C28.6174 13.8263 28.6174 14.1479 28.6174 14.4694V19.4855C28.6174 19.5498 28.6174 19.6784 28.7461 19.7427C28.8104 19.807 28.8747 19.8713 29.0033 19.8713H32.283C32.3473 19.8713 32.476 19.8713 32.5403 19.7427C32.6046 19.6784 32.6689 19.6141 32.6689 19.4855V12.4115C32.6689 12.3472 32.7332 12.2829 32.7975 12.2829H36.656C37.8779 12.2829 38.9711 12.0257 39.9358 11.5755C40.9004 11.061 41.6078 10.418 42.1866 9.51763C42.701 8.61731 42.9583 7.58837 42.9583 6.43081C42.9583 5.27326 42.701 4.18001 42.1866 3.27969C41.7364 2.18644 40.9647 1.41474 40.0644 0.964575ZM38.328 8.23146C37.8136 8.74592 37.1062 8.93885 36.2702 8.93885H32.7332H32.6689C32.7332 8.93885 32.7332 8.87454 32.7975 8.87454C33.5049 8.29576 33.5692 7.65268 32.9904 6.94528C32.7975 6.68805 32.6046 6.3022 32.6046 5.91634C32.6046 5.78773 32.6046 5.72342 32.6046 5.5948V3.66554C32.6046 3.60123 32.6689 3.53692 32.7332 3.53692H36.2702C37.1062 3.53692 37.8136 3.79416 38.328 4.30863C38.8425 4.8231 39.0998 5.46618 39.0998 6.3022C39.0998 7.13821 38.8425 7.7813 38.328 8.23146Z" fill="black"/>
<path d="M86.6881 3.34405C87.6527 3.34405 88.4887 3.6656 89.0675 4.24437C89.6463 4.82315 89.9678 5.59486 89.9678 6.62379C89.9678 6.81672 90.0321 6.94534 90.225 6.94534H90.2893L93.5691 6.75241C93.762 6.6881 93.8906 6.62379 93.8906 6.43087C93.8906 5.14469 93.5691 4.05145 92.9903 3.02251C92.4115 2.05788 91.5755 1.28617 90.4823 0.771704C89.3247 0.257235 88.1029 0 86.6881 0C85.2733 0 83.9871 0.257235 82.8939 0.836013C81.8006 1.41479 80.9646 2.1865 80.3858 3.21543C79.9357 3.92283 79.6784 4.75884 79.6141 5.65916C79.6141 5.78778 79.5498 5.85209 79.5498 5.98071C79.5498 6.49518 79.6784 6.75241 80.1286 7.00965C80.836 7.33119 80.9003 7.84566 80.3215 8.36013C79.9357 8.68167 79.4855 8.93891 79.0997 9.26045C78.3279 9.83923 78.1993 10.6752 78.8424 11.3183C79.2926 11.7042 79.4855 12.1543 79.5498 12.6045V13.2476C79.5498 13.3762 79.5498 13.5048 79.5498 13.6334V13.6977C79.6141 14.8553 79.8714 15.8842 80.3858 16.7203C80.9646 17.7492 81.8006 18.5209 82.8939 19.0997C83.9871 19.6785 85.2733 19.9357 86.6881 19.9357C88.1029 19.9357 89.389 19.6785 90.4823 19.0997C91.5755 18.5852 92.4115 17.8135 92.9903 16.8489C93.5691 15.8842 93.8906 14.7267 93.8906 13.4405C93.8906 13.3762 93.8263 13.3119 93.762 13.2476C93.6977 13.1833 93.6334 13.1833 93.5048 13.1833L90.225 13.0547C90.0321 13.0547 89.9035 13.1833 89.9035 13.3762C89.9035 14.3408 89.582 15.1125 89.0032 15.6913C88.4244 16.2701 87.5884 16.5916 86.6238 16.5916C85.5948 16.5916 84.8231 16.2701 84.2443 15.6913C83.7942 15.3055 83.5369 14.791 83.4083 14.1479C83.4083 14.1479 83.344 14.1479 83.344 14.0836C83.344 13.5048 83.344 12.8617 83.344 12.2186C83.344 11.8328 83.2797 11.5756 82.8939 11.4469C82.8295 11.4469 82.7652 11.3826 82.7009 11.3183C81.5434 10.6752 81.5434 9.96785 82.6366 9.26045C82.8939 9.06752 83.2154 8.93891 83.4726 8.74598C84.18 8.1672 84.2443 7.52412 83.6656 6.81672C83.4726 6.55949 83.2797 6.17363 83.2797 5.78778C83.4083 5.08039 83.6656 4.56592 84.1157 4.11576C84.8874 3.6656 85.6591 3.34405 86.6881 3.34405Z" fill="black"/>
<path d="M110.482 13.1189C110.354 12.6688 110.225 12.2186 110.096 11.7684C109.968 11.4469 109.839 11.1897 109.453 11.1897C109.389 11.1897 109.325 11.1897 109.26 11.1253C107.974 10.8038 107.781 10.225 108.617 9.19609C108.81 8.93885 109.067 8.74592 109.26 8.48869C109.775 7.71699 109.646 7.13821 108.874 6.55943C108.617 6.3665 108.36 6.04496 108.231 5.72342C108.103 5.33756 107.91 4.95171 107.781 4.56586L106.495 0.450106C106.431 0.25718 106.302 0.192871 106.109 0.192871H101.736C101.543 0.192871 101.415 0.25718 101.35 0.450106L100.321 3.92277C100.193 4.30863 99.6783 5.53049 99.5497 5.91634C99.4211 6.3665 99.4211 6.68805 99.8069 7.0739C100.386 7.58837 100.321 8.10284 99.5497 8.42438C99.0996 8.61731 98.5851 8.74592 98.0706 8.87454C97.1703 9.2604 96.7844 9.96779 97.2346 10.7395C97.7491 11.5755 97.5561 12.2186 97.2989 12.9903C97.1703 13.3118 97.106 13.6977 97.0417 13.9549L95.3696 19.2925C95.3053 19.4212 95.3696 19.5498 95.3696 19.6141C95.434 19.6784 95.4983 19.7427 95.6269 19.7427H99.1639C99.3568 19.7427 99.4854 19.6784 99.5497 19.4855L100.386 16.7845C100.45 16.7202 100.45 16.6559 100.514 16.6559H107.331C107.395 16.6559 107.46 16.7202 107.46 16.7845L108.296 19.4855C108.36 19.6784 108.489 19.7427 108.682 19.7427H112.219C112.411 19.7427 112.54 19.6784 112.54 19.4855C112.54 19.4212 112.54 19.3569 112.54 19.3569L110.482 13.1189ZM106.366 13.5691H101.479C101.415 13.5691 101.35 13.5048 101.35 13.3762L101.479 12.926C101.543 12.6688 101.479 12.4758 101.222 12.2829C101.157 12.2186 101.157 12.2186 101.093 12.1543C100.193 11.1897 100.386 10.5466 101.672 10.225C101.993 10.1607 102.315 10.0964 102.572 9.96779C103.473 9.64625 103.665 9.06747 103.344 8.16715C103.215 7.8456 103.215 7.45975 103.28 7.0739C103.408 6.68805 103.473 6.04496 103.601 5.65911L103.73 5.14464C103.73 5.08033 103.794 5.08033 103.794 5.01602C103.858 5.01602 103.858 5.01602 103.858 5.14464L103.987 5.5948C104.116 5.98065 104.18 6.62374 104.309 7.00959C104.437 7.45975 104.63 7.71699 105.209 7.7813C105.981 7.8456 106.174 8.29576 105.788 9.00316C105.53 9.45332 105.145 9.77486 104.887 10.225C104.373 11.061 104.437 11.8327 105.273 12.2186C105.788 12.4758 106.109 12.7974 106.302 13.1832L106.366 13.3762C106.495 13.5048 106.495 13.5691 106.366 13.5691Z" fill="black"/>
<path d="M124.566 9.77477C123.794 9.38892 122.765 9.00307 121.479 8.4886C120.322 8.03844 119.421 7.7169 118.843 7.45966C118.264 7.20243 117.878 6.94519 117.556 6.62365C117.299 6.30211 117.106 5.91625 117.106 5.46609C117.106 4.82301 117.363 4.30854 117.814 3.92268C118.264 3.53683 118.971 3.34391 119.871 3.34391C120.965 3.34391 121.865 3.60114 122.508 4.17992C123.151 4.7587 123.473 5.40178 123.473 6.17349V6.36642C123.473 6.43072 123.473 6.55934 123.601 6.62365C123.666 6.68796 123.73 6.75227 123.859 6.75227H127.074C127.138 6.75227 127.267 6.75227 127.331 6.62365C127.396 6.55934 127.46 6.49503 127.46 6.36642V5.98056C127.46 4.82301 127.138 3.72976 126.56 2.82944C125.916 1.92912 125.08 1.22172 123.987 0.707251C122.894 0.192782 121.608 -0.0644531 120.193 -0.0644531C118.843 -0.0644531 117.685 0.128473 116.656 0.578634C115.627 1.02879 114.855 1.67188 114.277 2.50789C113.698 3.34391 113.441 4.30854 113.441 5.40178C113.441 6.55934 113.762 7.45966 114.341 8.23137C114.92 9.00307 115.627 9.58185 116.527 10.032C117.363 10.4822 118.457 10.9323 119.679 11.3182C120.772 11.704 121.608 12.0256 122.122 12.2828C122.637 12.54 123.023 12.7973 123.344 13.1188C123.666 13.4404 123.794 13.8262 123.794 14.2764C123.794 14.9195 123.537 15.4339 123.087 15.8198C122.637 16.2056 121.865 16.4629 120.9 16.4629C119.743 16.4629 118.778 16.2056 118.135 15.6912C117.428 15.1767 117.106 14.5336 117.106 13.8262V13.5047C117.106 13.4404 117.042 13.3118 116.978 13.2474C116.913 13.1831 116.849 13.1188 116.72 13.1188H113.569C113.505 13.1188 113.376 13.1831 113.312 13.2474C113.248 13.3118 113.183 13.3761 113.183 13.5047V14.1478C113.183 15.3053 113.505 16.3343 114.084 17.2346C114.662 18.1349 115.563 18.778 116.656 19.2925C117.749 19.7426 119.035 19.9999 120.579 19.9999C122.765 19.9999 124.502 19.4854 125.788 18.4564C127.074 17.4275 127.717 16.077 127.717 14.3407C127.717 13.1831 127.396 12.2185 126.817 11.5111C126.045 10.6751 125.338 10.1606 124.566 9.77477Z" fill="black"/>
<path d="M143.73 0.321488C143.666 0.25718 143.601 0.192871 143.473 0.192871H129.453C129.389 0.192871 129.261 0.25718 129.196 0.321488C129.132 0.385797 129.068 0.450106 129.068 0.578723V3.27969C129.068 3.344 129.068 3.47261 129.196 3.53692C129.261 3.60123 129.325 3.66554 129.453 3.66554H134.277C134.341 3.66554 134.405 3.72985 134.405 3.79416V4.75879C134.405 5.14464 134.341 5.5948 134.341 5.98065C134.341 6.49512 134.47 6.75236 134.92 7.00959C135.627 7.33113 135.691 7.8456 135.113 8.36007C134.727 8.68162 134.277 8.93885 133.891 9.26039C133.119 9.83917 132.99 10.6752 133.634 11.3183C134.341 11.9614 134.405 12.6688 134.341 13.5048C134.341 13.8263 134.341 14.1479 134.341 14.4694V19.4855C134.341 19.5498 134.405 19.6784 134.47 19.7427C134.534 19.807 134.598 19.8713 134.727 19.8713H138.007C138.071 19.8713 138.199 19.8713 138.264 19.7427C138.328 19.6784 138.392 19.6141 138.392 19.4855V12.4115C138.392 12.0257 138.328 11.7684 137.942 11.6398C137.878 11.6398 137.814 11.5755 137.749 11.5112C136.592 10.8681 136.592 10.1607 137.685 9.45332C137.942 9.2604 138.264 9.13178 138.521 8.93885C139.228 8.36007 139.293 7.71699 138.714 7.00959C138.521 6.75236 138.328 6.3665 138.328 5.98065V3.72985C138.328 3.66554 138.392 3.60123 138.457 3.60123H143.408C143.473 3.60123 143.601 3.60123 143.666 3.47261C143.73 3.4083 143.794 3.344 143.794 3.21538V0.578723C143.794 0.450106 143.794 0.385797 143.73 0.321488Z" fill="black"/>
<path d="M21.7364 5.9803C21.7364 5.53014 21.6721 5.14429 21.7364 4.69412C21.7364 4.05104 21.7364 3.40795 21.7364 2.76486C21.7364 1.73593 21.2863 1.09284 20.5146 0.835603C19.357 0.578369 18.3924 1.28576 18.3281 2.57194C18.2638 3.7938 18.3281 5.07998 18.3281 6.30184C18.3281 7.13785 17.685 7.65232 16.9133 7.65232C16.1416 7.65232 15.5628 7.07355 15.5628 6.30184C15.5628 6.04461 15.5628 5.72306 15.5628 5.46583C15.4342 4.5012 14.7268 3.85811 13.8265 3.85811C12.9905 3.85811 12.2188 4.5012 12.2188 5.33721C12.2188 8.2311 12.2188 11.125 12.2188 14.0832C12.2188 14.9835 12.9261 15.6266 13.8265 15.6266C14.7268 15.6266 15.4342 15.0478 15.5628 14.1475C15.6271 13.826 15.5628 13.5044 15.5628 13.1829C15.6271 12.4112 16.2059 11.8324 16.9776 11.8324C17.685 11.8324 18.3281 12.3469 18.3281 13.1186C18.3924 14.3404 18.3281 15.6266 18.3281 16.8485C18.3281 18.0703 19.2927 18.842 20.4503 18.5848C21.222 18.3919 21.7364 17.7488 21.7364 16.7198C21.7364 15.8838 21.7364 15.0478 21.7364 14.2761C21.7364 13.633 21.7364 12.9256 21.7364 12.2825C21.7364 11.8967 21.6721 11.6395 21.2863 11.5108C21.222 11.5108 21.1577 11.4465 21.0933 11.3822C19.9358 10.7391 19.9358 10.0317 21.029 9.32435C21.2863 9.13142 21.6078 9.00281 21.8651 8.80988C22.5724 8.2311 22.6368 7.58802 22.058 6.88062C21.9294 6.68769 21.8007 6.30184 21.7364 5.9803Z" fill="black"/>
<path d="M59.6784 5.98071C59.6141 5.98071 59.6141 5.98071 59.6784 5.98071C59.5498 5.01608 59.2282 4.11576 58.7781 3.34405C58.135 2.31511 57.299 1.4791 56.2057 0.900321C55.1125 0.321543 53.8263 0 52.3472 0C50.9324 0 49.6462 0.321543 48.553 0.900321C47.4598 1.4791 46.6237 2.31511 45.9807 3.34405C45.5305 4.18006 45.2089 5.08039 45.1446 6.10932C45.2089 6.10932 45.209 6.10932 45.209 6.10932C45.1446 6.10932 45.0803 6.10932 45.0803 6.10932C45.0803 6.49518 45.2089 6.75241 45.6591 6.94534C46.3665 7.26688 46.4308 7.78135 45.852 8.29582C45.4662 8.61736 45.016 8.8746 44.6302 9.19614C43.8585 9.77492 43.7298 10.6109 44.3729 11.254C44.9517 11.7685 45.0803 12.3473 45.0803 12.926V12.9904C45.0803 13.119 45.0803 13.2476 45.0803 13.4405C45.0803 13.5048 45.0803 13.5048 45.0803 13.5691C45.0803 13.5691 45.0803 13.5691 45.1446 13.5691C45.2089 14.7267 45.5305 15.7556 46.045 16.6559C46.688 17.7492 47.5241 18.5209 48.6173 19.164C49.7106 19.8071 50.9967 20.0643 52.4115 20.0643C53.8906 20.0643 55.1768 19.7428 56.27 19.164C57.3633 18.5852 58.1993 17.7492 58.8424 16.6559C59.4855 15.5627 59.7427 14.3408 59.7427 12.926V12.4116C59.7427 12.4116 59.7427 12.4116 59.6784 12.4116C59.6784 12.3473 59.6784 12.3473 59.6784 12.283C59.6784 11.8971 59.6141 11.6399 59.2282 11.5113C59.1639 11.5113 59.0996 11.4469 59.0353 11.3826C57.8778 10.7395 57.8778 10.0322 58.971 9.32476C59.2282 9.13183 59.5498 9.00321 59.807 8.81029C60.5144 8.23151 60.5787 7.58842 59.9999 6.88103C59.807 6.6881 59.6784 6.30225 59.6784 5.98071ZM52.3472 16.6559C51.3183 16.6559 50.4823 16.3344 49.9035 15.6913C49.2604 15.0482 49.0032 14.2122 49.0032 13.119V12.7974C49.0032 12.6688 49.0032 12.4759 49.0032 12.3473C49.0032 12.283 49.0032 12.1543 49.0032 12.09C48.9388 11.8971 48.8745 11.7042 48.6173 11.6399C48.553 11.6399 48.4887 11.5756 48.4244 11.5113C47.2668 10.8682 47.2668 10.1608 48.3601 9.45338C48.6173 9.26045 48.9389 9.13183 49.1961 8.93891C49.9035 8.36013 49.9678 7.71704 49.389 7.00965C49.1961 6.81672 49.1318 6.49518 49.0675 6.23794C49.1961 5.53055 49.4533 4.88746 49.9678 4.37299C50.6109 3.7299 51.3826 3.40836 52.4115 3.40836C53.4405 3.40836 54.2765 3.7299 54.9196 4.37299C55.434 4.95177 55.7556 5.65916 55.8199 6.55948H55.8842C55.9485 6.75241 56.1414 6.88103 56.3987 7.00965C57.106 7.33119 57.1704 7.84566 56.5916 8.36013C56.2057 8.68167 55.7556 8.93891 55.3697 9.26045C54.598 9.83923 54.4694 10.6752 55.1125 11.3183C55.8199 11.9614 55.8842 12.6688 55.8199 13.5048C55.8199 13.6334 55.8199 13.7621 55.8199 13.8907C55.6913 14.6624 55.434 15.3055 54.9196 15.8199C54.1479 16.3344 53.3762 16.6559 52.3472 16.6559Z" fill="black"/>
<path d="M76.9132 6.23754V6.10893C76.9132 4.95137 76.656 3.92243 76.0772 3.02211C75.4985 2.12179 74.6624 1.41439 73.6335 0.964231C72.6046 0.449762 71.3827 0.256836 69.9679 0.256836H63.0226C62.9583 0.256836 62.8297 0.321145 62.7653 0.385453C62.701 0.449762 62.6367 0.514071 62.6367 0.642688V4.75844C62.6367 5.2086 62.6367 5.59446 62.6367 6.04462C62.6367 6.55909 62.7653 6.81632 63.2155 7.07356C63.9229 7.3951 63.9872 7.90957 63.4084 8.42404C63.0226 8.74558 62.5724 9.00282 62.1866 9.32436C61.4149 9.90314 61.2862 10.7392 61.9293 11.3822C62.6367 12.0253 62.701 12.7327 62.6367 13.5687C62.6367 13.8903 62.6367 14.2118 62.6367 14.5334V19.5494C62.6367 19.6138 62.6367 19.7424 62.7653 19.8067C62.8297 19.871 62.894 19.9353 63.0226 19.9353H69.9679C71.3827 19.9353 72.6046 19.6781 73.6335 19.2279C74.6624 18.7134 75.4985 18.0703 76.0772 17.17C76.656 16.2697 76.9132 15.2408 76.9132 14.0832V13.1829C76.9132 13.1829 76.9132 13.1829 76.8489 13.1829C76.8489 12.99 76.8489 12.7327 76.8489 12.5398C76.8489 12.1539 76.7846 11.8967 76.3988 11.7681C76.3345 11.7681 76.2702 11.7038 76.2059 11.6395C75.0483 10.9964 75.0483 10.289 76.1415 9.5816C76.3988 9.38867 76.7203 9.26005 76.9776 9.06713C77.6849 8.48835 77.7493 7.84526 77.1705 7.13787C77.1705 6.75201 76.9776 6.49478 76.9132 6.23754ZM70.0965 16.334H66.7525C66.6882 16.334 66.6239 16.2697 66.6239 16.2054V12.2826C66.6239 11.8967 66.5596 11.6395 66.1737 11.5109C66.1094 11.5109 66.0451 11.4465 65.9808 11.3822C64.8232 10.7392 64.8232 10.0318 65.9165 9.32436C66.1737 9.13143 66.4952 9.00282 66.7525 8.80989C67.4599 8.23111 67.5242 7.58803 66.9454 6.88063C66.7525 6.6234 66.5596 6.23754 66.5596 5.85169C66.5596 5.59446 66.5596 5.33722 66.5596 5.07999V3.72951C66.5596 3.6652 66.6239 3.60089 66.6882 3.60089H70.0322C70.9325 3.60089 71.6399 3.85812 72.1544 4.4369C72.6046 4.88706 72.7975 5.46584 72.9261 6.23754C72.9904 6.55909 73.119 6.81632 73.5049 6.94494C74.2123 7.26648 74.2766 7.78095 73.6978 8.29542C73.312 8.61697 72.8618 8.8742 72.4759 9.19574C71.7042 9.77452 71.5756 10.6105 72.2187 11.2536C72.9261 11.8967 72.9904 12.6041 72.9261 13.4401C72.9261 13.5044 72.9261 13.5687 72.9261 13.6974C72.8618 14.4691 72.6046 15.0478 72.1544 15.5623C71.6399 16.0125 70.9325 16.334 70.0965 16.334Z" fill="black"/>
</g>
<defs>
<clipPath id="clip0">
<rect width="143.794" height="20" fill="white"/>
</clipPath>
</defs>
</svg>
